HIERARCHY
ROOT Hips
{
  OFFSET -35.4901 99.2528 17.4586
  CHANNELS 6 Xposition Yposition Zposition Zrotation Xrotation Yrotation
  JOINT LeftUpLeg
  {
    OFFSET 8.64259 1.95398 -2.38835
    CHANNELS 3 Zrotation Xrotation Yrotation
    JOINT LeftLeg
    {
      OFFSET 43.7702 0 0
      CHANNELS 3 Zrotation Xrotation Yrotation
      JOINT LeftFoot
      {
        OFFSET 40.6238 0 0
        CHANNELS 3 Zrotation Xrotation Yrotation
        JOINT LeftToeBase
        {
          OFFSET 12.7242 0 0
          CHANNELS 3 Zrotation Xrotation Yrotation
          End Site
          {
            OFFSET 0 0 0
          }
        }
      }
    }
  }
  JOINT RightUpLeg
  {
    OFFSET -8.2249 1.95398 -2.59336
    CHANNELS 3 Zrotation Xrotation Yrotation
    JOINT RightLeg
    {
      OFFSET 43.5653 0 0
      CHANNELS 3 Zrotation Xrotation Yrotation
      JOINT RightFoot
      {
        OFFSET 40.6238 0 0
        CHANNELS 3 Zrotation Xrotation Yrotation
        JOINT RightToeBase
        {
          OFFSET 12.7242 0 0
          CHANNELS 3 Zrotation Xrotation Yrotation
          End Site
          {
            OFFSET 0 0 0
          }
        }
      }
    }
  }
  JOINT Spine
  {
    OFFSET 0.165834 0.87714 6.61349
    CHANNELS 3 Zrotation Xrotation Yrotation
    JOINT Spine1
    {
      OFFSET 7.38963 1.71661e-005 0
      CHANNELS 3 Zrotation Xrotation Yrotation
      JOINT Spine2
      {
        OFFSET 11.9445 1.14441e-005 0
        CHANNELS 3 Zrotation Xrotation Yrotation
        JOINT Spine3
        {
          OFFSET 14.7254 4.19617e-005 0
          CHANNELS 3 Zrotation Xrotation Yrotation
          JOINT Spine4
          {
            OFFSET 10.9679 0 0
            CHANNELS 3 Zrotation Xrotation Yrotation
            JOINT RightShoulder
            {
              OFFSET 2.46616 -1.6653 3.69651
              CHANNELS 3 Zrotation Xrotation Yrotation
              JOINT RightArm
              {
                OFFSET 13.0012 0 0
                CHANNELS 3 Zrotation Xrotation Yrotation
                JOINT RightForeArm
                {
                  OFFSET 28.7848 1.52588e-005 0
                  CHANNELS 3 Zrotation Xrotation Yrotation
                  JOINT RightHand
                  {
                    OFFSET 26.5688 1.52588e-005 0
                    CHANNELS 3 Zrotation Xrotation Yrotation
                    End Site
                    {
                      OFFSET 0 0 0
                    }
                  }
                }
              }
            }
            JOINT LeftShoulder
            {
              OFFSET 2.38034 -1.29275 -3.7523
              CHANNELS 3 Zrotation Xrotation Yrotation
              JOINT LeftArm
              {
                OFFSET 16.3182 6.10351e-005 0
                CHANNELS 3 Zrotation Xrotation Yrotation
                JOINT LeftForeArm
                {
                  OFFSET 27.0901 0 0
                  CHANNELS 3 Zrotation Xrotation Yrotation
                  JOINT LeftHand
                  {
                    OFFSET 24.5451 1.52588e-005 0
                    CHANNELS 3 Zrotation Xrotation Yrotation
                    End Site
                    {
                      OFFSET 0 0 0
                    }
                  }
                }
              }
            }
            JOINT Neck
            {
              OFFSET 5.0226 -0.0266342 0
              CHANNELS 3 Zrotation Xrotation Yrotation
              JOINT Head
              {
                OFFSET 6.69364 2.86102e-005 0
                CHANNELS 3 Zrotation Xrotation Yrotation
                End Site
                {
                  OFFSET 0 0 0
                }
              }
            }
          }
        }
      }
    }
  }
}
MOTION
Frames:	9
Frame Time:	0.0416667
34.9607 99.9345 16.6304 -161.07 -80.9508 -163.413 -179.017 -7.7524 88.5092 -6.10569 -5.70912 1.49688 67.7114 3.5675 -3.48313 18.029 -4.71451 7.38419 167.112 -3.699 82.9863 -10.7317 -8.79691 -0.647154 67.48 -3.33919 2.71603 24.6252 -1.41666 3.9942 0.373061 7.38736 -89.8819 12.0988 0.797456 0.147811 0.4281 0.803191 0.112568 -22.1086 0.716166 0.38066 -2.096 0.716158 0.380653 88.0953 -28.5643 -111.15 24.2605 8.09402 -22.5623 2.06478 -4.42696 -54.2187 -5.319 0.874483 -26.171 -85.3799 -47.6501 85.3378 -9.08654 12.8133 -37.1535 -30.3456 -25.5696 -59.97 -6.72275 0.0230459 -7.35948 0.672223 -1.59534 -3.14062 -9.02127 -1.19274 1.10922 
34.6381 99.9417 16.6982 -164.315 -81.579 -165.924 -178.028 -6.53301 89.9377 -7.66434 -4.43685 1.02277 68.2436 3.52197 -3.8657 16.2662 -4.02206 6.36717 167.903 -4.16697 84.2462 -9.48775 -8.36103 -0.649813 66.0763 -2.90513 1.88367 25.4655 -1.56539 4.33041 0.295538 7.32483 -90.0068 12.2244 0.584219 -0.0789403 0.553577 0.580178 -0.104584 -21.9826 0.580929 0.100297 -1.96995 0.580932 0.100292 88.4891 -27.5663 -110.812 24.9641 7.69693 -22.7079 2.22168 -4.12594 -54.1874 -4.84703 0.798009 -26.1528 -85.1651 -48.4589 85.7825 -9.85327 12.4977 -37.7563 -29.5608 -26.4007 -58.5313 -8.74084 0.138456 -8.44652 0.439854 -1.46215 -2.78704 -8.8457 -1.15145 1.69298 
34.627 99.9769 16.8311 -164.483 -81.4258 -165.943 -177.835 -6.9108 90.1555 -7.38032 -3.89775 0.924719 68.0992 3.50117 -3.6891 16.5767 -4.83493 7.47579 167.836 -4.47103 84.33 -9.61453 -8.33558 -0.556749 66.4746 -3.07067 1.52654 24.4563 -1.62244 4.49622 0.300823 7.34448 -90.0232 12.1849 0.586984 -0.111651 0.514087 0.581506 -0.137386 -22.0221 0.593398 0.0699263 -2.00948 0.593406 0.069928 88.4122 -27.6894 -110.912 24.9023 7.8239 -22.6432 1.9301 -4.41064 -54.1852 -4.71199 0.762954 -26.3046 -85.1597 -48.4257 85.7859 -9.82328 11.8208 -37.8225 -27.8954 -25.573 -57.5518 -8.68877 0.0679785 -7.1673 0.526187 -1.4729 -2.73108 -9.07335 -1.14919 1.33407 
34.6348 99.9757 16.9077 -164.875 -81.4617 -166.322 -177.893 -6.89125 90.0931 -7.48624 -3.74175 0.99936 68.0739 3.47991 -3.45019 16.9 -4.90949 7.59324 167.842 -4.50336 84.3307 -9.61038 -8.26742 -0.561126 66.6429 -3.15265 1.2512 24.1504 -1.93564 5.25868 0.299085 7.34644 -90.0408 12.19 0.575198 -0.145477 0.519153 0.568237 -0.170658 -22.017 0.592325 0.0341272 -2.00438 0.592321 0.0341191 88.4853 -27.4056 -110.894 25.1703 7.90198 -22.6073 2.17883 -4.15505 -53.989 -5.2365 0.863993 -26.0469 -85.1387 -48.7194 85.8586 -9.55558 11.9132 -37.9531 -28.1029 -25.7749 -57.4699 -7.94832 0.0327285 -6.82164 0.450696 -1.43365 -2.2857 -8.92948 -1.15325 0.982697 
34.6122 99.9578 16.9508 -164.918 -81.559 -166.271 -177.991 -6.72397 90.0882 -7.70185 -3.89172 1.16645 68.3766 3.54011 -3.49145 16.4946 -4.99884 7.69206 167.994 -4.79158 84.4974 -8.84734 -8.07315 -0.625475 66.2025 -3.02321 1.86014 24.9017 -1.50744 4.20544 0.327272 7.3429 -90.0498 12.1887 0.626965 -0.169222 0.51789 0.618906 -0.196653 -22.0185 0.64884 0.027044 -2.00585 0.648835 0.0270395 88.6075 -27.6512 -110.533 24.8914 7.89473 -22.666 2.16167 -4.44228 -54.0782 -4.91179 0.81152 -26.4549 -85.2541 -48.556 85.6593 -9.24068 12.1067 -38.1768 -28.4831 -25.9334 -57.5541 -7.09938 -0.00519237 -6.43731 0.93777 -1.60005 -2.40439 -9.54658 -1.28676 0.846892 
34.61 99.9655 17.0197 -164.972 -81.5989 -166.338 -177.858 -6.69143 90.2057 -7.76532 -4.00095 1.01542 68.3679 3.52574 -3.83332 16.5772 -4.85296 7.49974 168.007 -4.6475 84.5104 -9.28993 -7.97207 -0.640091 66.6638 -3.17612 1.58931 24.0767 -1.61902 4.49507 0.318821 7.33387 -90.0434 12.2067 0.61319 -0.154977 0.535895 0.605783 -0.181818 -22.0004 0.63142 0.0364779 -1.98779 0.631421 0.0364857 88.5072 -27.7283 -110.702 24.8139 7.93049 -22.5825 2.42816 -4.00844 -54.3493 -4.58848 0.758199 -26.0965 -85.1726 -48.6831 85.8014 -9.10691 12.0632 -38.2155 -28.6348 -26.008 -57.6451 -7.24748 0.00568518 -6.63212 0.734278 -1.60423 -2.55229 -9.43148 -1.2902 1.10932 
34.5933 99.9598 17.1184 -165.419 -81.6122 -166.633 -177.62 -6.67141 90.4848 -7.90027 -3.50939 0.866791 68.4401 3.53361 -3.51826 16.7473 -4.83908 7.48916 168.057 -4.91141 84.6411 -8.87944 -7.9651 -0.607819 66.184 -3.02467 1.84105 25.0201 -1.51389 4.21427 0.322845 7.32542 -90.0559 12.2236 0.615256 -0.180276 0.552796 0.606727 -0.207188 -21.9835 0.64099 0.0129776 -1.97089 0.640989 0.0129705 88.5054 -27.592 -110.768 25.1065 8.08106 -22.5306 2.15181 -4.43417 -54.4045 -4.43038 0.719566 -26.3685 -85.2095 -48.592 85.7325 -9.37468 11.9091 -38.2676 -28.0397 -25.8287 -57.2595 -7.85018 0.0321176 -6.93649 0.598899 -1.67285 -2.82254 -9.40902 -1.34446 1.45507 
34.6083 99.9605 17.1636 -166.185 -81.7389 -167.452 -177.748 -6.60688 90.3581 -7.87339 -3.53502 0.969992 68.3852 3.50471 -3.71356 16.9356 -5.19474 7.98162 167.97 -4.77481 84.5666 -9.05783 -7.99543 -0.546151 66.4592 -3.1476 1.44026 24.3675 -1.62682 4.51137 0.310247 7.32015 -90.0406 12.2341 0.597416 -0.147925 0.563294 0.590333 -0.174083 -21.973 0.614258 0.0384745 -1.96032 0.61425 0.038459 88.4524 -27.6436 -110.851 25.0555 8.16624 -22.4723 1.96141 -4.74896 -54.5648 -4.8277 0.774536 -26.2103 -85.228 -48.4995 85.6914 -9.98023 11.3695 -38.2639 -26.2844 -25.042 -56.4945 -9.92261 0.128815 -7.67834 0.571153 -1.65927 -2.78447 -9.15599 -1.31716 1.19059 
34.6198 99.9546 17.2033 -165.986 -81.7435 -167.256 -177.735 -6.60979 90.3558 -7.92504 -3.50037 0.95463 68.4275 3.50069 -3.55373 16.8212 -4.93468 7.62315 167.944 -4.81353 84.56 -9.04446 -7.85574 -0.524391 66.8192 -3.30456 1.30788 23.9854 -1.80822 4.95362 0.319562 7.3197 -90.0528 12.2351 0.610179 -0.173638 0.564252 0.60194 -0.200329 -21.9721 0.634151 0.0177834 -1.95941 0.634144 0.0177741 88.4743 -27.5594 -110.845 24.9691 8.17234 -22.3544 1.69502 -4.86735 -54.7567 -4.1909 0.650189 -26.3502 -85.3155 -48.5577 85.5654 -9.41201 11.6691 -38.0399 -27.5215 -25.4353 -57.244 -8.69437 0.0763504 -7.39129 0.642249 -1.64218 -2.42949 -9.16817 -1.33037 0.875851 
